<?xml version="1.0" encoding="UTF-8"?>
<svg width="120" height="40" viewBox="0 0 120 40" fill="none" xmlns="http://www.w3.org/2000/svg">
  <rect x="10" y="10" width="30" height="20" rx="10" fill="#10B981"/>
  <path d="M25 15L25 25" stroke="white" stroke-width="2" stroke-linecap="round"/>
  <path d="M20 20L30 20" stroke="white" stroke-width="2" stroke-linecap="round"/>
  <path d="M48.536 27.28C51.816 27.28 54.056 24.96 54.056 21.72C54.056 18.48 51.816 16.12 48.536 16.12C45.256 16.12 43.016 18.48 43.016 21.72C43.016 24.96 45.256 27.28 48.536 27.28ZM48.536 24.4C47.096 24.4 46.296 23.24 46.296 21.72C46.296 20.2 47.096 19 48.536 19C49.976 19 50.776 20.2 50.776 21.72C50.776 23.24 49.976 24.4 48.536 24.4ZM55.5838 27H58.8638V21.32C58.8638 19.96 59.8238 18.92 61.1038 18.92C62.3838 18.92 63.1438 19.76 63.1438 21.16V27H66.4238V20.44C66.4238 17.68 64.7838 16.12 62.3038 16.12C60.8238 16.12 59.5838 16.76 58.8638 17.76V16.4H55.5838V27ZM68.5965 27H71.8765V21.32C71.8765 19.96 72.8365 18.92 74.1165 18.92C75.3965 18.92 76.1565 19.76 76.1565 21.16V27H79.4365V20.44C79.4365 17.68 77.7965 16.12 75.3165 16.12C73.8365 16.12 72.5965 16.76 71.8765 17.76V16.4H68.5965V27ZM81.6092 27H84.8892V16.4H81.6092V27ZM83.2492 15.04C84.2492 15.04 85.0492 14.28 85.0492 13.32C85.0492 12.36 84.2492 11.6 83.2492 11.6C82.2492 11.6 81.4492 12.36 81.4492 13.32C81.4492 14.28 82.2492 15.04 83.2492 15.04ZM92.9319 27.28C95.4119 27.28 97.2119 26.12 97.9319 24.2L95.0919 23.48C94.7719 24.36 93.9719 24.84 92.9719 24.84C91.5719 24.84 90.6519 23.92 90.6519 22.4V22.32H98.0119V21.52C98.0119 18.04 95.8519 16.12 92.7719 16.12C89.6119 16.12 87.3719 18.44 87.3719 21.68C87.3719 25 89.5719 27.28 92.9319 27.28ZM90.6519 20.28C90.7319 19.04 91.6919 18.2 92.8519 18.2C94.0119 18.2 94.9319 19 94.9719 20.28H90.6519ZM104.774 27.28C107.254 27.28 109.054 26.12 109.774 24.2L106.934 23.48C106.614 24.36 105.814 24.84 104.814 24.84C103.414 24.84 102.494 23.92 102.494 22.4V22.32H109.854V21.52C109.854 18.04 107.694 16.12 104.614 16.12C101.454 16.12 99.2141 18.44 99.2141 21.68C99.2141 25 101.414 27.28 104.774 27.28ZM102.494 20.28C102.574 19.04 103.534 18.2 104.694 18.2C105.854 18.2 106.774 19 106.814 20.28H102.494Z" fill="white"/>
</svg>
