<?xml version="1.0" encoding="UTF-8"?>
<svg width="120" height="40" viewBox="0 0 120 40" fill="none" xmlns="http://www.w3.org/2000/svg">
  <path d="M10 20C10 14.4772 14.4772 10 20 10H30C35.5228 10 40 14.4772 40 20C40 25.5228 35.5228 30 30 30H20C14.4772 30 10 25.5228 10 20Z" fill="#8B5CF6"/>
  <path d="M20 15V25" stroke="white" stroke-width="2" stroke-linecap="round"/>
  <path d="M25 15V25" stroke="white" stroke-width="2" stroke-linecap="round"/>
  <path d="M30 15V25" stroke="white" stroke-width="2" stroke-linecap="round"/>
  <path d="M47.176 27H50.584L55.784 12.6H52.184L49.016 22.52L45.848 12.6H42.008L47.176 27ZM56.9661 27H60.2461V21.32C60.2461 19.96 61.2061 18.92 62.4861 18.92C63.7661 18.92 64.5261 19.76 64.5261 21.16V27H67.8061V20.44C67.8061 17.68 66.1661 16.12 63.6861 16.12C62.2061 16.12 60.9661 16.76 60.2461 17.76V16.4H56.9661V27ZM75.6888 27.28C78.1688 27.28 79.9688 26.12 80.6888 24.2L77.8488 23.48C77.5288 24.36 76.7288 24.84 75.7288 24.84C74.3288 24.84 73.4088 23.92 73.4088 22.4V22.32H80.7688V21.52C80.7688 18.04 78.6088 16.12 75.5288 16.12C72.3688 16.12 70.1288 18.44 70.1288 21.68C70.1288 25 72.3288 27.28 75.6888 27.28ZM73.4088 20.28C73.4888 19.04 74.4488 18.2 75.6088 18.2C76.7688 18.2 77.6888 19 77.7288 20.28H73.4088ZM87.4715 27.28C90.7515 27.28 92.9915 24.96 92.9915 21.72C92.9915 18.48 90.7515 16.12 87.4715 16.12C84.1915 16.12 81.9515 18.48 81.9515 21.72C81.9515 24.96 84.1915 27.28 87.4715 27.28ZM87.4715 24.4C86.0315 24.4 85.2315 23.24 85.2315 21.72C85.2315 20.2 86.0315 19 87.4715 19C88.9115 19 89.7115 20.2 89.7115 21.72C89.7115 23.24 88.9115 24.4 87.4715 24.4ZM99.5192 27.28C102.799 27.28 105.039 24.96 105.039 21.72C105.039 18.48 102.799 16.12 99.5192 16.12C96.2392 16.12 93.9992 18.48 93.9992 21.72C93.9992 24.96 96.2392 27.28 99.5192 27.28ZM99.5192 24.4C98.0792 24.4 97.2792 23.24 97.2792 21.72C97.2792 20.2 98.0792 19 99.5192 19C100.959 19 101.759 20.2 101.759 21.72C101.759 23.24 100.959 24.4 99.5192 24.4Z" fill="white"/>
</svg>
