<?xml version="1.0" encoding="UTF-8"?>
<svg width="120" height="40" viewBox="0 0 120 40" fill="none" xmlns="http://www.w3.org/2000/svg">
  <path d="M14.5 8H28.5C31.8137 8 34.5 10.6863 34.5 14V26C34.5 29.3137 31.8137 32 28.5 32H14.5C11.1863 32 8.5 29.3137 8.5 26V14C8.5 10.6863 11.1863 8 14.5 8Z" fill="#0EA5E9"/>
  <path d="M21.5 14V26" stroke="white" stroke-width="2" stroke-linecap="round" stroke-linejoin="round"/>
  <path d="M15.5 20H27.5" stroke="white" stroke-width="2" stroke-linecap="round" stroke-linejoin="round"/>
  <path d="M47.864 15.56H51.272V27H54.584V15.56H58.024V12.6H47.864V15.56ZM59.5956 27H62.8756V21.32C62.8756 19.96 63.8356 18.92 65.1156 18.92C66.3956 18.92 67.1556 19.76 67.1556 21.16V27H70.4356V20.44C70.4356 17.68 68.7956 16.12 66.3156 16.12C64.8356 16.12 63.5956 16.76 62.8756 17.76V16.4H59.5956V27ZM78.6183 27.28C81.8983 27.28 84.1383 24.96 84.1383 21.72C84.1383 18.48 81.8983 16.12 78.6183 16.12C75.3383 16.12 73.0983 18.48 73.0983 21.72C73.0983 24.96 75.3383 27.28 78.6183 27.28ZM78.6183 24.4C77.1783 24.4 76.3783 23.24 76.3783 21.72C76.3783 20.2 77.1783 19 78.6183 19C80.0583 19 80.8583 20.2 80.8583 21.72C80.8583 23.24 80.0583 24.4 78.6183 24.4ZM85.6661 27H88.9461V21.32C88.9461 19.96 89.9061 18.92 91.1861 18.92C92.4661 18.92 93.2261 19.76 93.2261 21.16V27H96.5061V20.44C96.5061 17.68 94.8661 16.12 92.3861 16.12C90.9061 16.12 89.6661 16.76 88.9461 17.76V16.4H85.6661V27ZM98.6888 27H101.969V16.4H98.6888V27ZM100.329 15.04C101.329 15.04 102.129 14.28 102.129 13.32C102.129 12.36 101.329 11.6 100.329 11.6C99.3288 11.6 98.5288 12.36 98.5288 13.32C98.5288 14.28 99.3288 15.04 100.329 15.04ZM104.01 27H107.29V21.32C107.29 19.96 108.25 18.92 109.53 18.92C110.81 18.92 111.57 19.76 111.57 21.16V27H114.85V20.44C114.85 17.68 113.21 16.12 110.73 16.12C109.25 16.12 108.01 16.76 107.29 17.76V16.4H104.01V27Z" fill="white"/>
</svg>
