<?xml version="1.0" encoding="UTF-8"?>
<svg width="120" height="40" viewBox="0 0 120 40" fill="none" xmlns="http://www.w3.org/2000/svg">
  <path d="M15 10H35C37.7614 10 40 12.2386 40 15V25C40 27.7614 37.7614 30 35 30H15C12.2386 30 10 27.7614 10 25V15C10 12.2386 12.2386 10 15 10Z" fill="#F59E0B"/>
  <circle cx="17.5" cy="20" r="2.5" fill="white"/>
  <circle cx="25" cy="20" r="2.5" fill="white"/>
  <circle cx="32.5" cy="20" r="2.5" fill="white"/>
  <path d="M47.176 27H50.584L55.784 12.6H52.184L49.016 22.52L45.848 12.6H42.008L47.176 27ZM61.7661 27.28C64.2461 27.28 66.0461 26.12 66.7661 24.2L63.9261 23.48C63.6061 24.36 62.8061 24.84 61.8061 24.84C60.4061 24.84 59.4861 23.92 59.4861 22.4V22.32H66.8461V21.52C66.8461 18.04 64.6861 16.12 61.6061 16.12C58.4461 16.12 56.2061 18.44 56.2061 21.68C56.2061 25 58.4061 27.28 61.7661 27.28ZM59.4861 20.28C59.5661 19.04 60.5261 18.2 61.6861 18.2C62.8461 18.2 63.7661 19 63.8061 20.28H59.4861ZM73.6088 27.28C76.0888 27.28 77.8888 26.12 78.6088 24.2L75.7688 23.48C75.4488 24.36 74.6488 24.84 73.6488 24.84C72.2488 24.84 71.3288 23.92 71.3288 22.4V22.32H78.6888V21.52C78.6888 18.04 76.5288 16.12 73.4488 16.12C70.2888 16.12 68.0488 18.44 68.0488 21.68C68.0488 25 70.2488 27.28 73.6088 27.28ZM71.3288 20.28C71.4088 19.04 72.3688 18.2 73.5288 18.2C74.6888 18.2 75.6088 19 75.6488 20.28H71.3288ZM80.3315 27H83.6115V21.32C83.6115 19.96 84.5715 18.92 85.8515 18.92C87.1315 18.92 87.8915 19.76 87.8915 21.16V27H91.1715V20.44C91.1715 17.68 89.5315 16.12 87.0515 16.12C85.5715 16.12 84.3315 16.76 83.6115 17.76V16.4H80.3315V27ZM98.9642 27.28C101.444 27.28 103.244 26.12 103.964 24.2L101.124 23.48C100.804 24.36 100.004 24.84 99.0042 24.84C97.6042 24.84 96.6842 23.92 96.6842 22.4V22.32H104.044V21.52C104.044 18.04 101.884 16.12 98.8042 16.12C95.6442 16.12 93.4042 18.44 93.4042 21.68C93.4042 25 95.6042 27.28 98.9642 27.28ZM96.6842 20.28C96.7642 19.04 97.7242 18.2 98.8842 18.2C100.044 18.2 100.964 19 101.004 20.28H96.6842Z" fill="white"/>
</svg>
