<?xml version="1.0" encoding="UTF-8"?>
<svg width="120" height="40" viewBox="0 0 120 40" fill="none" xmlns="http://www.w3.org/2000/svg">
  <path d="M10 15C10 12.2386 12.2386 10 15 10H35C37.7614 10 40 12.2386 40 15V25C40 27.7614 37.7614 30 35 30H15C12.2386 30 10 27.7614 10 25V15Z" fill="#EC4899"/>
  <path d="M18 15L25 20L18 25V15Z" fill="white"/>
  <path d="M25 15L32 20L25 25V15Z" fill="white"/>
  <path d="M47.864 15.56H51.272V27H54.584V15.56H58.024V12.6H47.864V15.56ZM64.7956 27.28C67.2756 27.28 69.0756 26.12 69.7956 24.2L66.9556 23.48C66.6356 24.36 65.8356 24.84 64.8356 24.84C63.4356 24.84 62.5156 23.92 62.5156 22.4V22.32H69.8756V21.52C69.8756 18.04 67.7156 16.12 64.6356 16.12C61.4756 16.12 59.2356 18.44 59.2356 21.68C59.2356 25 61.4356 27.28 64.7956 27.28ZM62.5156 20.28C62.5956 19.04 63.5556 18.2 64.7156 18.2C65.8756 18.2 66.7956 19 66.8356 20.28H62.5156ZM76.6383 27.28C79.1183 27.28 80.9183 26.12 81.6383 24.2L78.7983 23.48C78.4783 24.36 77.6783 24.84 76.6783 24.84C75.2783 24.84 74.3583 23.92 74.3583 22.4V22.32H81.7183V21.52C81.7183 18.04 79.5583 16.12 76.4783 16.12C73.3183 16.12 71.0783 18.44 71.0783 21.68C71.0783 25 73.2783 27.28 76.6383 27.28ZM74.3583 20.28C74.4383 19.04 75.3983 18.2 76.5583 18.2C77.7183 18.2 78.6383 19 78.6783 20.28H74.3583ZM88.361 27.28C91.641 27.28 93.881 24.96 93.881 21.72C93.881 18.48 91.641 16.12 88.361 16.12C85.081 16.12 82.841 18.48 82.841 21.72C82.841 24.96 85.081 27.28 88.361 27.28ZM88.361 24.4C86.921 24.4 86.121 23.24 86.121 21.72C86.121 20.2 86.921 19 88.361 19C89.801 19 90.601 20.2 90.601 21.72C90.601 23.24 89.801 24.4 88.361 24.4ZM95.4088 27H98.6888V21.32C98.6888 19.96 99.6488 18.92 100.929 18.92C102.209 18.92 102.969 19.76 102.969 21.16V27H106.249V20.44C106.249 17.68 104.609 16.12 102.129 16.12C100.649 16.12 99.4088 16.76 98.6888 17.76V16.4H95.4088V27Z" fill="white"/>
</svg>
